/* XPM */
static char * icon_xpm[] = {
"48 48 18 1",
" 	c None",
".	c #000000",
"+	c #292929",
"@	c #6B6B6B",
"#	c #DEDEDE",
"$	c #BDBDBD",
"%	c #B5B5B5",
"&	c #313131",
"*	c #181818",
"=	c #737373",
"-	c #080808",
";	c #B48A92",
">	c #A36F79",
",	c #845A62",
"'	c #8E4E5B",
")	c #733F49",
"!	c #101010",
"~	c #5D333B",
"................................................",
".+@@@@@@@@@@@@@@@@@@@@@@@@@@@@@@@@@@@@@@@@@@@@+.",
".@#$%%%%%%%%%%%%%%%%%%%%%%%%%%%%%%%%%%%%%%%%$#@.",
".@$&****************************************&$@.",
".=%-........................................-%=.",
".@%*........................................*%@.",
".@%*.........;;>>>>>>>,,,...................*%@.",
".@%*.........;;>>>>>>>,,,...................*%@.",
".@%*.........>>''''''')))...................*%@.",
".@%*.........>>''''''')))...................*%@.",
".@%*.........>>''''''')))...................*%@.",
".@%*.........>>''''''')))...................*%@.",
".@%*.........>>''''''')))...................*%@.",
".@%*.........>>''''''')))...................*%@.",
".@%*.........>>''''''')))...................*%@.",
".@%*.........>>''''''')))...................*%@.",
".@%*.........>>''''''')))...................*%@.",
".@%*.........>>''''''')))...................*%@.",
".@%*.........>>''''''''''>>>>>>>>>,,........!%@.",
".@%*.........>>''''''''''>>>>>>>>>,,........!%@.",
".@%*.........>>'''''''''''''''''''))........*%@.",
".@%*.........>>'''''''''''''''''''))........*%@.",
".@%*.........>>'''''''''''''''''''))........*%@.",
".@%*.........>>'''''''''''''''''''))........*%@.",
".@%*.........>>'''''''''''''''''''))........*%@.",
".@%*.........>>'''''''''''''''''''))........*%@.",
".@%*.........>>'''''''''''''''''''))........*%@.",
".@%*.........,,))))))))))'''''''''))........*%@.",
".@%*.........,,))))))))))'''''''''))........*%@.",
".@%*.........,,))))))))))'''''''''))........*%@.",
".@%*.....................>>'''''''))........*%@.",
".@%*.....................>>'''''''))........*%@.",
".@%*.....................>>'''''''))........*%@.",
".@%*.....................>>'''''''))........*%@.",
".@%*.....................>>'''''''))........*%@.",
".@%*.....................>>'''''''))........*%@.",
".@%*.....................>>'''''''))........*%@.",
".@%*.....................>>'''''''))........*%@.",
".@%*.....................>>'''''''))........*%@.",
".@%*.....................,,)))))))~~........*%@.",
".@%*.....................,,)))))))~~........*%@.",
".@%*.....................,,)))))))~~........*%@.",
".@%*........................................*%@.",
".=%-........................................-%=.",
".@$&****************!!**********************&$@.",
".@#$%%%%%%%%%%%%%%%%%%%%%%%%%%%%%%%%%%%%%%%%$#@.",
".+@@@@@@@@@@@@@@@@@@@@@@@@@@@@@@@@@@@@@@@@@@@@+.",
"................................................"};
